<mxfile host="app.diagrams.net" modified="2022-02-08T00:27:58.044Z" agent="5.0 (Macintosh)" etag="VTd2puRG8D2qY8jyGGC9" version="15.6.8" type="github">
  <diagram id="6jUQ0pOkhu8HpAFBzyDg" name="Page-1">
    <mxGraphModel dx="635" dy="1717" grid="1" gridSize="10" guides="1" tooltips="1" connect="1" arrows="1" fold="1" page="1" pageScale="1" pageWidth="850" pageHeight="1100" math="0" shadow="0">
      <root>
        <mxCell id="0" />
        <mxCell id="1" parent="0" />
        <mxCell id="VEWpBpmub5iD0UJDaR_N-7" style="edgeStyle=orthogonalEdgeStyle;rounded=0;orthogonalLoop=1;jettySize=auto;html=1;entryX=0.5;entryY=1;entryDx=0;entryDy=0;strokeWidth=3;" edge="1" parent="1" source="VEWpBpmub5iD0UJDaR_N-1" target="VEWpBpmub5iD0UJDaR_N-2">
          <mxGeometry relative="1" as="geometry" />
        </mxCell>
        <mxCell id="VEWpBpmub5iD0UJDaR_N-1" value="&lt;h2&gt;The &quot;Data Layer&quot;&lt;/h2&gt;" style="rounded=1;whiteSpace=wrap;html=1;strokeWidth=3;" vertex="1" parent="1">
          <mxGeometry x="360" y="480" width="240" height="80" as="geometry" />
        </mxCell>
        <mxCell id="VEWpBpmub5iD0UJDaR_N-4" style="edgeStyle=orthogonalEdgeStyle;rounded=0;orthogonalLoop=1;jettySize=auto;html=1;entryX=0.5;entryY=0;entryDx=0;entryDy=0;strokeWidth=3;" edge="1" parent="1" source="VEWpBpmub5iD0UJDaR_N-2" target="VEWpBpmub5iD0UJDaR_N-1">
          <mxGeometry relative="1" as="geometry" />
        </mxCell>
        <mxCell id="VEWpBpmub5iD0UJDaR_N-9" style="edgeStyle=orthogonalEdgeStyle;rounded=0;orthogonalLoop=1;jettySize=auto;html=1;entryX=0.5;entryY=1;entryDx=0;entryDy=0;strokeWidth=3;" edge="1" parent="1" source="VEWpBpmub5iD0UJDaR_N-2" target="VEWpBpmub5iD0UJDaR_N-3">
          <mxGeometry relative="1" as="geometry" />
        </mxCell>
        <mxCell id="VEWpBpmub5iD0UJDaR_N-2" value="&lt;h2&gt;The &quot;Application Layer&quot;&lt;/h2&gt;" style="rounded=1;whiteSpace=wrap;html=1;shadow=1;strokeWidth=3;" vertex="1" parent="1">
          <mxGeometry x="360" y="320" width="240" height="80" as="geometry" />
        </mxCell>
        <mxCell id="VEWpBpmub5iD0UJDaR_N-8" style="edgeStyle=orthogonalEdgeStyle;rounded=0;orthogonalLoop=1;jettySize=auto;html=1;entryX=0.5;entryY=0;entryDx=0;entryDy=0;strokeWidth=3;" edge="1" parent="1" source="VEWpBpmub5iD0UJDaR_N-3" target="VEWpBpmub5iD0UJDaR_N-2">
          <mxGeometry relative="1" as="geometry" />
        </mxCell>
        <mxCell id="VEWpBpmub5iD0UJDaR_N-11" style="edgeStyle=orthogonalEdgeStyle;rounded=0;orthogonalLoop=1;jettySize=auto;html=1;strokeWidth=3;" edge="1" parent="1" source="VEWpBpmub5iD0UJDaR_N-3" target="VEWpBpmub5iD0UJDaR_N-6">
          <mxGeometry relative="1" as="geometry" />
        </mxCell>
        <mxCell id="VEWpBpmub5iD0UJDaR_N-3" value="&lt;h2&gt;The &quot;Network Layer&quot;&lt;/h2&gt;" style="rounded=1;whiteSpace=wrap;html=1;strokeWidth=3;" vertex="1" parent="1">
          <mxGeometry x="360" y="160" width="240" height="80" as="geometry" />
        </mxCell>
        <mxCell id="VEWpBpmub5iD0UJDaR_N-10" style="edgeStyle=orthogonalEdgeStyle;rounded=0;orthogonalLoop=1;jettySize=auto;html=1;entryX=0.5;entryY=0;entryDx=0;entryDy=0;strokeWidth=3;" edge="1" parent="1" source="VEWpBpmub5iD0UJDaR_N-6" target="VEWpBpmub5iD0UJDaR_N-3">
          <mxGeometry relative="1" as="geometry" />
        </mxCell>
        <mxCell id="VEWpBpmub5iD0UJDaR_N-6" value="&lt;h2&gt;The Internet&lt;/h2&gt;" style="ellipse;shape=cloud;whiteSpace=wrap;html=1;shadow=1;strokeWidth=3;" vertex="1" parent="1">
          <mxGeometry x="360" width="240" height="80" as="geometry" />
        </mxCell>
      </root>
    </mxGraphModel>
  </diagram>
</mxfile>
